<?xml version="1.0" standalone="no"?>
<!DOCTYPE svg PUBLIC "-//W3C//DTD SVG 20010904//EN"
 "http://www.w3.org/TR/2001/REC-SVG-20010904/DTD/svg10.dtd">
<svg version="1.0" xmlns="http://www.w3.org/2000/svg"
 width="512.000000pt" height="512.000000pt" viewBox="0 0 512.000000 512.000000"
 preserveAspectRatio="xMidYMid meet">

<g transform="translate(0.000000,512.000000) scale(0.100000,-0.100000)"
fill="#000000" stroke="none">
<path d="M789 5105 c-192 -36 -361 -125 -505 -269 -147 -147 -234 -314 -269
-513 -22 -124 -22 -2282 -1 -2395 32 -167 84 -265 201 -383 91 -91 190 -152
318 -196 193 -66 134 -62 1228 -68 l997 -6 701 -638 701 -637 0 638 0 639 79
7 c357 29 678 266 810 597 70 175 66 95 66 1319 0 1023 -1 1110 -18 1174 -92
359 -344 616 -706 719 l-76 22 -1725 2 c-1433 1 -1738 -1 -1801 -12z m3506
-320 c238 -50 440 -252 490 -490 22 -104 22 -2086 0 -2190 -38 -182 -170 -352
-335 -434 -121 -59 -189 -71 -417 -71 l-193 0 -2 -442 -3 -443 -477 442 -476
442 -1054 3 c-1044 3 -1054 4 -1129 25 -205 58 -320 162 -364 328 -22 87 -22
2233 0 2340 49 235 251 439 485 489 100 22 3373 22 3475 1z"/>
<path d="M1375 3826 c-67 -29 -105 -106 -91 -181 9 -47 59 -102 104 -115 25
-8 401 -10 1194 -8 1150 3 1157 3 1184 24 53 39 69 71 69 134 0 63 -16 95 -69
134 -27 21 -33 21 -1194 23 -955 2 -1173 0 -1197 -11z"/>
<path d="M1695 2866 c-67 -29 -105 -106 -91 -181 9 -47 59 -102 104 -115 25
-8 305 -10 874 -8 827 3 837 3 864 24 53 39 69 71 69 134 0 63 -16 95 -69 134
-27 21 -36 21 -874 23 -689 2 -853 0 -877 -11z"/>
</g>
</svg>
